<svg width="16" height="14" viewBox="0 0 16 14" fill="none" xmlns="http://www.w3.org/2000/svg">
<path fill-rule="evenodd" clip-rule="evenodd" d="M15.8305 4.64626L11.259 0.166292C11.1459 0.055441 11.012 0 10.8572 0C10.7025 0 10.5685 0.055441 10.4555 0.166292C10.3423 0.277205 10.2857 0.408467 10.2857 0.56011V2.80009H8.28572C4.04151 2.80009 1.43748 3.97554 0.473063 6.32637C0.157677 7.10794 0 8.07931 0 9.24014C0 10.2084 0.377994 11.5238 1.13392 13.1863C1.15175 13.2273 1.18289 13.2971 1.22761 13.3962C1.2723 13.4953 1.31242 13.5828 1.34814 13.6587C1.38398 13.7345 1.42269 13.7986 1.46432 13.8511C1.53568 13.9503 1.61905 14 1.71431 14C1.8036 14 1.87355 13.9709 1.92418 13.9125C1.97469 13.8542 1.99999 13.7812 1.99999 13.694C1.99999 13.6413 1.99255 13.5641 1.97763 13.462C1.96274 13.3598 1.95527 13.2915 1.95527 13.2564C1.92547 12.8599 1.91058 12.5009 1.91058 12.1803C1.91058 11.5911 1.96274 11.0632 2.06682 10.5966C2.17105 10.1298 2.31537 9.72596 2.49995 9.38467C2.68449 9.04326 2.9225 8.74889 3.21425 8.50095C3.50587 8.25302 3.81981 8.05037 4.15612 7.89285C4.49249 7.73529 4.88831 7.61132 5.34367 7.52094C5.79901 7.43053 6.25731 7.3678 6.71868 7.33277C7.18004 7.29774 7.70236 7.28033 8.28572 7.28033H10.2857V9.52037C10.2857 9.67202 10.3422 9.80331 10.4552 9.9141C10.5684 10.0248 10.7023 10.0803 10.857 10.0803C11.0117 10.0803 11.1457 10.0248 11.259 9.9141L15.8304 5.43398C15.9435 5.32313 16 5.19193 16 5.04026C16 4.88861 15.9435 4.75732 15.8305 4.64626Z" fill="white"/>
</svg>
