<svg width="20" height="17" viewBox="0 0 20 17" fill="none" xmlns="http://www.w3.org/2000/svg">
<path opacity="0.5" d="M20 1.92212C19.2639 2.2483 18.474 2.46951 17.6441 2.56827C18.4915 2.06085 19.1401 1.25601 19.4475 0.299935C18.6527 0.769837 17.7754 1.11105 16.8405 1.29601C16.0919 0.497418 15.0271 0 13.8461 0C11.5803 0 9.7431 1.83716 9.7431 4.10173C9.7431 4.42291 9.77935 4.7366 9.84935 5.03657C6.44 4.86533 3.41683 3.2319 1.39346 0.749837C1.03977 1.35474 0.838562 2.05958 0.838562 2.81196C0.838562 4.23546 1.56343 5.49147 2.66324 6.22631C1.99085 6.20382 1.35846 6.01886 0.804837 5.71141V5.76265C0.804837 7.74977 2.21958 9.4082 4.09546 9.78565C3.75176 9.87814 3.38935 9.92938 3.01441 9.92938C2.74948 9.92938 2.49327 9.90314 2.24206 9.85314C2.76444 11.4841 4.27918 12.6701 6.07386 12.7026C4.67036 13.8024 2.90069 14.456 0.978562 14.456C0.647386 14.456 0.321176 14.436 0 14.3998C1.81591 15.5659 3.97176 16.2457 6.28882 16.2457C13.8361 16.2457 17.9616 9.99438 17.9616 4.57291L17.9479 4.04176C18.754 3.46683 19.4513 2.74448 20 1.92212Z" fill="white"/>
</svg>
