<svg width="20" height="24" viewBox="0 0 20 24" fill="none" xmlns="http://www.w3.org/2000/svg">
<path opacity="0.1" d="M19.4155 12.9143C19.3432 12.7329 19.1746 12.6145 18.9874 12.6145H13.9114V0.485189C13.9114 0.217373 13.7039 0 13.4482 0H6.03659C5.78089 0 5.57335 0.217373 5.57335 0.485189V12.6145H0.477884C0.290755 12.6145 0.122127 12.7329 0.0498639 12.9134C-0.0214873 13.0949 0.0174236 13.3035 0.14992 13.4423L9.39126 23.1535C9.47833 23.2447 9.59602 23.2962 9.71922 23.2962C9.84243 23.2962 9.96012 23.2447 10.0472 23.1545L19.3154 13.4432C19.4479 13.3044 19.4877 13.0958 19.4155 12.9143Z" fill="white"/>
</svg>
