<svg width="11" height="20" viewBox="0 0 11 20" fill="none" xmlns="http://www.w3.org/2000/svg">
<path opacity="0.5" d="M10.3955 0.00415094L7.8084 0C4.90191 0 3.02361 1.92708 3.02361 4.90974V7.17345H0.422417C0.197644 7.17345 0.015625 7.35568 0.015625 7.58045V10.8603C0.015625 11.0851 0.197851 11.2671 0.422417 11.2671H3.02361V19.5433C3.02361 19.768 3.20563 19.9501 3.4304 19.9501H6.82421C7.04898 19.9501 7.231 19.7678 7.231 19.5433V11.2671H10.2724C10.4972 11.2671 10.6792 11.0851 10.6792 10.8603L10.6804 7.58045C10.6804 7.47253 10.6375 7.36917 10.5613 7.29279C10.4851 7.21641 10.3814 7.17345 10.2734 7.17345H7.231V5.25447C7.231 4.33213 7.4508 3.86391 8.65229 3.86391L10.3951 3.86328C10.6196 3.86328 10.8016 3.68106 10.8016 3.45649V0.410943C10.8016 0.186585 10.6198 0.00456604 10.3955 0.00415094Z" fill="white"/>
</svg>
