<?xml version="1.0" encoding="iso-8859-1"?>
<!-- Generator: Adobe Illustrator 19.0.0, SVG Export Plug-In . SVG Version: 6.00 Build 0)  -->
<svg version="1.1" id="Layer_1" xmlns="http://www.w3.org/2000/svg" xmlns:xlink="http://www.w3.org/1999/xlink" x="0px" y="0px"
	 viewBox="0 0 508 508" style="enable-background:new 0 0 508 508;" xml:space="preserve">
<circle style="fill:#90DFAA;" cx="254" cy="254" r="254"/>
<path style="fill:#324A5E;" d="M254,172.4L81.2,144c-1.6-0.4-2.8,0.8-2.8,2.4v221.2c0,1.2,0.8,2.4,2,2.4L254,398.4V172.4z"/>
<polygon style="fill:#CED5E0;" points="254,180.8 87.6,153.6 87.6,363.2 254,390.4 "/>
<path style="fill:#324A5E;" d="M254,172.4L426.8,144c1.6-0.4,2.8,0.8,2.8,2.4v221.2c0,1.2-0.8,2.4-2,2.4L254,398.4V172.4z"/>
<polygon style="fill:#ACB3BA;" points="254,180.8 420.4,153.6 420.4,363.2 254,390.4 "/>
<path style="fill:#CED5E0;" d="M404,142.4c-48-13.6-104.8,0.4-150,38.8v209.2c45.2-38.4,102-52.8,150-38.8V142.4z"/>
<g>
	<path style="fill:#E6E9EE;" d="M388,109.6c-42.8-3.2-93.6,23.2-134,71.6v209.2c40.4-48.4,91.2-74.8,134-71.6V109.6z"/>
	<path style="fill:#E6E9EE;" d="M104,142.4c48-13.6,104.8,0.4,150,38.8v209.2c-45.2-38.4-102-52.8-150-38.8V142.4z"/>
</g>
<path style="fill:#FFFFFF;" d="M120,109.6c42.8-3.2,93.6,23.2,134,71.6v209.2c-40.4-48.4-91.2-74.8-134-71.6V109.6z"/>
<g>
</g>
<g>
</g>
<g>
</g>
<g>
</g>
<g>
</g>
<g>
</g>
<g>
</g>
<g>
</g>
<g>
</g>
<g>
</g>
<g>
</g>
<g>
</g>
<g>
</g>
<g>
</g>
<g>
</g>
</svg>
