<svg width="15" height="12" viewBox="0 0 15 12" fill="none" xmlns="http://www.w3.org/2000/svg">
<path d="M7.92514 11.9057C7.8138 11.8614 7.74114 11.7579 7.74114 11.643V8.52805L0.297746 8.52805C0.133395 8.52805 0 8.40069 0 8.24377L0 3.69548C0 3.53857 0.133395 3.41121 0.297746 3.41121L7.74117 3.41121L7.74117 0.284274C7.74117 0.169439 7.81383 0.0659564 7.92459 0.0216107C8.03593 -0.0221754 8.16397 0.00170305 8.24913 0.0830124L14.2086 5.75415C14.2646 5.80758 14.2962 5.8798 14.2962 5.95541C14.2962 6.03102 14.2646 6.10324 14.2092 6.15667L8.24971 11.8443C8.16452 11.9256 8.03652 11.9501 7.92514 11.9057Z" fill="#E2E2E2"/>
</svg>
