<svg width="35" height="25" viewBox="0 0 35 25" fill="none" xmlns="http://www.w3.org/2000/svg">
<path fill-rule="evenodd" clip-rule="evenodd" d="M0.0371094 21.388L7.41866 2.12134C7.41866 2.12134 11.0514 1.16004 14.8913 0.592773C11.1097 8.48623 8.82759 15.8142 8.82759 16.9457C8.82759 18.0767 9.15378 20.1594 14.0216 20.1594C19.7984 20.1594 27.13 16.6202 27.13 11.2118C27.13 18.4392 19.4091 23.0112 10.905 23.0112C4.56389 23.0112 0.0371094 21.388 0.0371094 21.388Z" fill="#9EC73D"/>
<path fill-rule="evenodd" clip-rule="evenodd" d="M27.1304 11.212C27.1304 18.4393 19.4096 23.0114 10.9054 23.0114C4.56435 23.0114 0.108398 21.3882 0.108398 21.3882C0.108398 21.3882 3.92507 24.978 13.6608 24.978C23.3947 24.978 34.7983 18.9304 34.7983 10.1792C34.7983 -1.87078 17.4608 0.351842 17.4608 0.351842L14.8078 5.94232C14.8078 5.94232 17.2983 5.6566 19.3614 5.6566C22.2626 5.6566 27.1304 6.93577 27.1304 11.212Z" fill="#6D53AF"/>
</svg>
