<svg width="12" height="14" viewBox="0 0 12 14" fill="none" xmlns="http://www.w3.org/2000/svg">
<path fill-rule="evenodd" clip-rule="evenodd" d="M11.0729 7.37079C11.0317 7.26723 10.9354 7.19966 10.8286 7.19966H7.93152V0.276919C7.93152 0.124064 7.81307 0 7.66713 0H3.43699C3.29105 0 3.1726 0.124064 3.1726 0.276919V7.19968H0.264389C0.157587 7.19968 0.0613428 7.26726 0.020099 7.37027C-0.0206243 7.47383 0.00158393 7.59291 0.0772058 7.67211L5.35165 13.2147C5.40135 13.2668 5.46852 13.2962 5.53884 13.2962C5.60915 13.2962 5.67632 13.2668 5.72602 13.2153L11.0158 7.67266C11.0914 7.59343 11.1142 7.47437 11.0729 7.37079Z" fill="#9EC73D"/>
</svg>
