<svg width="15" height="12" viewBox="0 0 15 12" fill="none" xmlns="http://www.w3.org/2000/svg">
<path d="M6.371 11.9057C6.48234 11.8614 6.555 11.7579 6.555 11.643V8.52805L13.9984 8.52805C14.1627 8.52805 14.2961 8.40069 14.2961 8.24377L14.2961 3.69548C14.2961 3.53857 14.1627 3.41121 13.9984 3.41121L6.55497 3.41121L6.55497 0.284274C6.55497 0.169439 6.48231 0.0659564 6.37156 0.0216107C6.26021 -0.0221754 6.13218 0.00170305 6.04701 0.0830124L0.0875187 5.75415C0.0315533 5.80758 -1.62125e-05 5.8798 -1.62125e-05 5.95541C-1.62125e-05 6.03102 0.0315533 6.10324 0.0869322 6.15667L6.04643 11.8443C6.13162 11.9256 6.25963 11.9501 6.371 11.9057Z" fill="#E2E2E2"/>
</svg>
