<?xml version="1.0" encoding="iso-8859-1"?>
<!-- Generator: Adobe Illustrator 19.0.0, SVG Export Plug-In . SVG Version: 6.00 Build 0)  -->
<svg xmlns="http://www.w3.org/2000/svg" xmlns:xlink="http://www.w3.org/1999/xlink" version="1.1" id="Layer_1" x="0px" y="0px" viewBox="0 0 512 512" style="enable-background:new 0 0 512 512;" xml:space="preserve" width="512px" height="512px">
<g>
	<g>
		<path d="M448.532,106.963h-74.501l-36.645-54.968c-3.836-5.754-10.293-9.211-17.208-9.211H191.822    c-6.915,0-13.373,3.456-17.208,9.211l-36.645,54.968H63.467C28.472,106.963,0,135.434,0,170.43v235.318    c0,34.996,28.472,63.467,63.467,63.467h385.065c34.996,0,63.468-28.471,63.468-63.467V170.43    C512,135.435,483.528,106.963,448.532,106.963z M470.636,405.748c0,12.188-9.916,22.102-22.103,22.102H63.467    c-12.187,0-22.102-9.915-22.102-22.102V170.43c0-12.187,9.916-22.102,22.102-22.102h85.57c6.915,0,13.373-3.456,17.209-9.21    l36.645-54.968h106.217l36.645,54.968c3.836,5.754,10.293,9.21,17.209,9.21h85.57c12.188,0,22.103,9.915,22.103,22.102V405.748z" fill="#c51abb"/>
	</g>
</g>
<g>
	<g>
		<path d="M256,171.141c-58.588,0-106.252,47.665-106.252,106.252c0,58.588,47.665,106.252,106.252,106.252    s106.252-47.665,106.252-106.252C362.252,218.806,314.588,171.141,256,171.141z M256,342.281    c-35.779,0-64.888-29.109-64.888-64.888c0-35.779,29.109-64.888,64.888-64.888c35.779,0,64.888,29.109,64.888,64.888    C320.888,313.173,291.779,342.281,256,342.281z" fill="#c51abb"/>
	</g>
</g>
<g>
</g>
<g>
</g>
<g>
</g>
<g>
</g>
<g>
</g>
<g>
</g>
<g>
</g>
<g>
</g>
<g>
</g>
<g>
</g>
<g>
</g>
<g>
</g>
<g>
</g>
<g>
</g>
<g>
</g>
</svg>
