<svg width="23" height="22" viewBox="0 0 23 22" fill="none" xmlns="http://www.w3.org/2000/svg">
<g opacity="0.2">
<path fill-rule="evenodd" clip-rule="evenodd" d="M21.0004 15.9201V18.9201C21.0027 19.4832 20.7675 20.0213 20.3525 20.402C19.9375 20.7827 19.3813 20.9708 18.8204 20.9201C15.7433 20.5857 12.7874 19.5342 10.1904 17.8501C7.77426 16.3148 5.72576 14.2663 4.19043 11.8501C2.50041 9.2413 1.44867 6.27109 1.12043 3.1801C1.0699 2.62097 1.2567 2.06635 1.63519 1.65172C2.01369 1.23709 2.54902 1.00063 3.11043 1.0001H6.11043C7.11429 0.990218 7.96993 1.72607 8.11043 2.7201C8.23705 3.68016 8.47188 4.62283 8.81043 5.5301C9.08516 6.26097 8.90944 7.0849 8.36043 7.6401L7.09043 8.9101C8.51398 11.4136 10.5869 13.4865 13.0904 14.9101L14.3604 13.6401C14.9156 13.0911 15.7396 12.9154 16.4704 13.1901C17.3777 13.5286 18.3204 13.7635 19.2804 13.8901C20.286 14.032 21.0256 14.9049 21.0004 15.9201Z" stroke="white" stroke-width="2" stroke-linecap="round" stroke-linejoin="round"/>
</g>
</svg>
